<svg width="368" height="220" fill="none" xmlns="http://www.w3.org/2000/svg">
  <mask id="a" style="mask-type:alpha" maskUnits="userSpaceOnUse" x="0" y="0" width="368" height="220">
    <path fill="#D9D9D9" d="M0 0h368v219.632H0z"/>
  </mask>
  <g mask="url(#a)">
    <path d="M152.987 47.8984H82.7077c-2.7686 0-5.0188 2.2397-5.0188 4.9953v14.9914c0 2.7611 2.2502 4.9953 5.0188 4.9953h70.2793c2.774 0 5.019-2.2397 5.019-4.9953V52.8937c0-2.7611-2.25-4.9953-5.019-4.9953Zm-28.524 16.5778c-2.267 0-4.109-1.8279-4.109-4.0895s1.837-4.0896 4.109-4.0896c2.272 0 4.109 1.828 4.109 4.0896 0 2.2616-1.837 4.0895-4.109 4.0895Zm19.397 0c-2.267 0-4.109-1.8279-4.109-4.0895s1.836-4.0896 4.109-4.0896c2.272 0 4.108 1.828 4.108 4.0896 0 2.2616-1.836 4.0895-4.108 4.0895Zm9.127 13.1525H82.7077c-2.7741 0-5.0188 2.2396-5.0188 4.9953v14.9913c0 2.7607 2.2502 4.9957 5.0188 4.9957h70.2793c2.774 0 5.019-2.24 5.019-4.9957V82.624c0-2.7612-2.25-4.9953-5.019-4.9953Zm-28.524 16.5778c-2.267 0-4.109-1.828-4.109-4.0896 0-2.2616 1.837-4.0896 4.109-4.0896 2.272 0 4.109 1.828 4.109 4.0896 0 2.2616-1.837 4.0896-4.109 4.0896Zm19.397 0c-2.267 0-4.109-1.828-4.109-4.0896 0-2.2616 1.836-4.0896 4.109-4.0896 2.272 0 4.108 1.828 4.108 4.0896 0 2.2616-1.836 4.0896-4.108 4.0896Zm9.127 13.1525H82.7077c-2.7741 0-5.0188 2.24-5.0188 4.995v14.992c0 2.761 2.2502 4.995 5.0188 4.995h70.2793c2.774 0 5.019-2.24 5.019-4.995v-14.992c0-2.761-2.25-4.995-5.019-4.995Zm-28.524 16.578c-2.267 0-4.109-1.828-4.109-4.09 0-2.261 1.837-4.089 4.109-4.089 2.272 0 4.109 1.828 4.109 4.089 0 2.262-1.837 4.09-4.109 4.09Zm19.397 0c-2.267 0-4.109-1.828-4.109-4.09 0-2.261 1.836-4.089 4.109-4.089 2.272 0 4.108 1.828 4.108 4.089 0 2.262-1.836 4.09-4.108 4.09Z" fill="url(#b)"/>
    <path d="M259.63 42.4766c-42.037 0-76.242 34.2054-76.242 76.2424 0 42.038 34.205 76.243 76.242 76.243 42.038 0 76.243-34.205 76.243-76.243 0-42.037-34.205-76.2424-76.243-76.2424Zm68.1 72.2374h-27.397c-.341-12.638-2.255-24.3706-5.385-34.561 4.777-2.5068 9.316-5.5031 13.513-9.0186 11.125 11.4067 18.29 26.6701 19.269 43.5796Zm-64.095-63.6638c8.455 2.2695 16.035 11.5551 21.286 24.905-6.749 2.6848-13.914 4.2423-21.286 4.6725V51.0502Zm17.919 3.0853c7.654 2.6107 14.714 6.5266 20.87 11.5106-3.204 2.5958-6.615 4.8653-10.205 6.8085-2.922-7.2683-6.541-13.4686-10.68-18.3339l.015.0148Zm-25.929-3.0853v29.5775c-7.357-.4302-14.536-2.0025-21.27-4.6873 5.251-13.3351 12.815-22.6207 21.27-24.8902Zm-28.598 21.4044c-3.575-1.958-6.986-4.2275-10.19-6.8085 6.17-4.984 13.216-8.8999 20.87-11.5106-4.139 4.8505-7.758 11.0656-10.68 18.3191Zm28.598 16.2572v26.0022h-28.672c.326-11.273 2.047-21.9083 4.791-31.1642 7.58 2.9815 15.634 4.7318 23.881 5.162Zm0 34.0122v26.003c-8.262.43-16.316 2.18-23.896 5.162-2.744-9.256-4.45-19.891-4.776-31.15h28.672v-.015Zm0 34.028v29.637c-8.469-2.27-16.049-11.57-21.285-24.92 6.734-2.685 13.913-4.287 21.285-4.717Zm-17.918 26.551c-7.669-2.61-14.73-6.541-20.915-11.54 3.219-2.596 6.631-4.88 10.205-6.838 2.922 7.283 6.557 13.513 10.695 18.378h.015Zm25.928 3.086v-29.637c7.372.43 14.552 2.017 21.286 4.717-5.251 13.35-12.816 22.665-21.286 24.92Zm28.614-21.464c3.589 1.958 7.001 4.242 10.22 6.838-6.171 4.999-13.246 8.93-20.915 11.54 4.153-4.865 7.772-11.095 10.695-18.378Zm-28.614-16.213v-26.003h28.673c-.326 11.274-2.047 21.909-4.776 31.15-7.565-2.981-15.62-4.732-23.882-5.162l-.015.015Zm0-34.012V88.6969c8.262-.4301 16.317-2.1805 23.882-5.1619 2.744 9.2559 4.45 19.891 4.776 31.15h-28.672l.014.015Zm-52.836-43.5804c4.198 3.5006 8.737 6.5117 13.513 9.0186-3.129 10.1904-5.058 21.9238-5.384 34.5618h-27.397c.979-16.9103 8.158-32.1737 19.268-43.5804Zm-19.268 51.5894h27.397c.341 12.638 2.255 24.371 5.384 34.547-4.776 2.507-9.3 5.518-13.498 9.033-11.125-11.406-18.289-26.67-19.283-43.58Zm116.916 43.58c-4.198-3.515-8.722-6.526-13.499-9.033 3.13-10.19 5.044-21.909 5.385-34.547h27.397c-.979 16.91-8.159 32.174-19.283 43.58Z" fill="url(#c)"/>
    <path fill="#232323" d="M163.934 42.6794h40.6523v39.7489H163.934z"/>
    <path d="M188.641 17.5773c-1.335-.0959-2.67-.1439-4.004-.1439-1.335 0-2.669.048-4.004.1439-31.791 2.6381-50.093 37.9879-36.175 66.8625l35.603 73.8652c1.859 3.885 7.388 3.885 9.247 0l35.604-73.8652c13.869-28.8746-4.481-64.2244-36.271-66.8625Zm-4.004 63.7928c-8.15 0-14.728-6.6191-14.728-14.821 0-8.202 6.578-14.8211 14.728-14.8211 8.15 0 14.728 6.6191 14.728 14.8211 0 8.2019-6.578 14.821-14.728 14.821Z" fill="url(#d)"/>
    <path fill="#232323" d="M283.217 42.1605h40.2563v38.3162H283.217z"/>
    <path d="m346.364 59.5074-7.588-3.131c-1.453-.5982-1.826-2.5146-.709-3.6315l5.824-5.8287c1.399-1.3977.414-3.8146-1.549-3.7963l-8.171.0733c-1.567.0122-2.636-1.6113-2.03-3.0822l3.188-7.6658c.763-1.831-1.056-3.6803-2.857-2.9052l-7.541 3.2409c-1.447.6225-3.044-.4639-3.032-2.0629l.072-8.3067c.018-1.9897-2.36-2.9906-3.734-1.5746l-5.734 5.9202c-1.099 1.1352-2.984.7568-3.572-.7202l-3.08-7.7146c-.739-1.8432-3.302-1.8432-4.041 0l-3.08 7.7146c-.588 1.477-2.473 1.8554-3.572.7202l-5.734-5.9202c-1.375-1.4221-3.752-.4212-3.734 1.5746l.072 8.3067c.012 1.5929-1.585 2.6793-3.032 2.0629l-7.541-3.2409c-1.801-.7751-3.62 1.0742-2.858 2.9052l3.188 7.6658c.613 1.4709-.456 3.0944-2.029 3.0822l-8.171-.0733c-1.957-.0183-2.942 2.3986-1.549 3.7963l5.824 5.8287c1.116 1.1169.744 3.0333-.709 3.6315l-7.589 3.131c-1.813.7507-1.813 3.3568 0 4.1075l7.589 3.131c1.453.5981 1.825 2.5146.709 3.6315l-5.824 5.8287c-1.399 1.3976-.414 3.8145 1.549 3.7962l8.171-.0732c1.567-.0122 2.636 1.6113 2.029 3.0822l-3.188 7.6658c-.762 1.831 1.057 3.6803 2.858 2.9051l7.541-3.2408c1.447-.6226 3.044.4638 3.032 2.0629l-.072 8.3067c-.018 1.99 2.359 2.991 3.734 1.575l5.734-5.9207c1.099-1.1352 2.984-.7568 3.572.7202l3.08 7.7145c.739 1.843 3.302 1.843 4.041 0l3.08-7.7145c.588-1.477 2.473-1.8554 3.572-.7202l5.734 5.9207c1.374 1.422 3.752.421 3.734-1.575l-.072-8.3067c-.012-1.593 1.585-2.6794 3.032-2.0629l7.541 3.2408c1.801.7752 3.62-1.0741 2.857-2.9051l-3.188-7.6658c-.612-1.4709.457-3.0944 2.03-3.0822l8.171.0732c1.957.0183 2.942-2.3986 1.549-3.7962l-5.824-5.8287c-1.117-1.1169-.744-3.0334.709-3.6315l7.588-3.131c1.814-.7507 1.814-3.3568 0-4.1075Zm-25.053-1.9287-9.294 6.8663c-.343.2502-.487.7018-.355 1.1108l3.549 11.108c.294.9155-.739 1.6723-1.501 1.1108l-9.294-6.8662c-.342-.2503-.805-.2503-1.147 0l-9.294 6.8662c-.762.5676-1.795-.1953-1.501-1.1108l3.548-11.108c.133-.409-.012-.8545-.354-1.1108l-9.294-6.8663c-.762-.5676-.372-1.7944.577-1.7944h11.491c.42 0 .798-.2746.931-.6835l3.548-11.1081c.294-.9155 1.561-.9155 1.855 0l3.548 11.1081c.132.4089.505.6835.931.6835h11.491c.943 0 1.339 1.2268.577 1.7944h-.012Z" fill="url(#e)"/>
    <path d="M171.015 153.405c-2.07 0-4.076.244-6.009.678-4.296-19.715-22.039-34.492-43.291-34.492-16.039 0-30.0911 8.42-37.859 21.026-3.8198-1.428-7.9602-2.215-12.293-2.215-19.1998 0-34.763 15.365-34.763 34.32 0 18.954 15.5632 34.319 34.763 34.319h99.452c15.005 0 27.17-12.009 27.17-26.823 0-14.813-12.165-26.822-27.17-26.822v.009Z" fill="url(#f)"/>
  </g>
  <defs>
    <linearGradient id="b" x1="74.7169" y1="47.8984" x2="252.303" y2="199.212" gradientUnits="userSpaceOnUse">
      <stop stop-color="#27D9E5" stop-opacity=".5"/>
      <stop offset=".621637" stop-color="#27D9E5" stop-opacity="0"/>
    </linearGradient>
    <linearGradient id="c" x1="177.745" y1="42.4766" x2="500.592" y2="331.689" gradientUnits="userSpaceOnUse">
      <stop stop-color="#27D9E5" stop-opacity=".5"/>
      <stop offset=".621637" stop-color="#27D9E5" stop-opacity="0"/>
    </linearGradient>
    <linearGradient id="d" x1="140" y1="76.3159" x2="237" y2="141.316" gradientUnits="userSpaceOnUse">
      <stop stop-color="#27D9E5"/>
      <stop offset="1" stop-color="#004047"/>
    </linearGradient>
    <linearGradient id="e" x1="276.292" y1="101.93" x2="334.052" y2="-1.63918" gradientUnits="userSpaceOnUse">
      <stop stop-color="#FFB56F"/>
      <stop offset="1" stop-color="#FFE2C8"/>
    </linearGradient>
    <linearGradient id="f" x1="22" y1="113.316" x2="176" y2="223.816" gradientUnits="userSpaceOnUse">
      <stop stop-color="#27D9E5"/>
      <stop offset=".547165" stop-color="#075D65"/>
      <stop offset="1" stop-color="#004047"/>
    </linearGradient>
  </defs>
</svg>
